<svg width="32" height="32" viewBox="0 0 32 32" fill="none" xmlns="http://www.w3.org/2000/svg">
<path d="M0 8C0 3.58172 3.58172 0 8 0H24C28.4183 0 32 3.58172 32 8V24C32 28.4183 28.4183 32 24 32H8C3.58172 32 0 28.4183 0 24V8Z" fill="#333333"/>
<circle cx="16" cy="16" r="16" fill="#333333"/>
<path d="M21.9585 20.8932L22.6692 16.3772H18.2231V13.448C18.2231 12.2122 18.843 11.0069 20.8344 11.0069H22.8571V7.16225C22.8571 7.16225 21.0223 6.85712 19.2688 6.85712C15.6055 6.85712 13.2133 9.02048 13.2133 12.9353V16.3772H9.14282V20.8932H13.2133V31.8108C14.0305 31.9359 14.8665 32 15.7182 32C16.5698 32 17.4059 31.9359 18.2231 31.8108V20.8932H21.9585Z" fill="white"/>
</svg>
