<svg width="32" height="32" viewBox="0 0 32 32" fill="none" xmlns="http://www.w3.org/2000/svg">
<rect width="32" height="32" rx="6" fill="#333333"/>
<rect width="32" height="32" rx="6" fill="#333333"/>
<rect width="32" height="32" rx="6" fill="#333333"/>
<path d="M24 9.71427C24 10.661 23.2325 11.4286 22.2857 11.4286C21.3389 11.4286 20.5714 10.661 20.5714 9.71427C20.5714 8.76749 21.3389 7.99998 22.2857 7.99998C23.2325 7.99998 24 8.76749 24 9.71427Z" fill="white"/>
<path fill-rule="evenodd" clip-rule="evenodd" d="M16 21.7143C19.1559 21.7143 21.7143 19.1559 21.7143 16C21.7143 12.8441 19.1559 10.2857 16 10.2857C12.8441 10.2857 10.2857 12.8441 10.2857 16C10.2857 19.1559 12.8441 21.7143 16 21.7143ZM16 19.4286C17.8935 19.4286 19.4286 17.8935 19.4286 16C19.4286 14.1064 17.8935 12.5714 16 12.5714C14.1064 12.5714 12.5714 14.1064 12.5714 16C12.5714 17.8935 14.1064 19.4286 16 19.4286Z" fill="white"/>
<path fill-rule="evenodd" clip-rule="evenodd" d="M4.57141 15.5428C4.57141 11.7025 4.57141 9.7823 5.3188 8.31548C5.97621 7.02522 7.02522 5.97621 8.31548 5.3188C9.7823 4.57141 11.7025 4.57141 15.5428 4.57141H16.4571C20.2975 4.57141 22.2177 4.57141 23.6845 5.3188C24.9747 5.97621 26.0238 7.02522 26.6812 8.31548C27.4286 9.7823 27.4286 11.7025 27.4286 15.5428V16.4571C27.4286 20.2975 27.4286 22.2177 26.6812 23.6845C26.0238 24.9747 24.9747 26.0238 23.6845 26.6812C22.2177 27.4286 20.2975 27.4286 16.4571 27.4286H15.5428C11.7025 27.4286 9.7823 27.4286 8.31548 26.6812C7.02522 26.0238 5.97621 24.9747 5.3188 23.6845C4.57141 22.2177 4.57141 20.2975 4.57141 16.4571V15.5428ZM15.5428 6.85713H16.4571C18.415 6.85713 19.746 6.8589 20.7748 6.94296C21.7768 7.02483 22.2893 7.17323 22.6468 7.35538C23.507 7.79366 24.2063 8.493 24.6446 9.35317C24.8267 9.71065 24.9751 10.2231 25.057 11.2252C25.1411 12.254 25.1428 13.5849 25.1428 15.5428V16.4571C25.1428 18.415 25.1411 19.746 25.057 20.7748C24.9751 21.7768 24.8267 22.2893 24.6446 22.6468C24.2063 23.507 23.507 24.2063 22.6468 24.6446C22.2893 24.8267 21.7768 24.9751 20.7748 25.057C19.746 25.1411 18.415 25.1428 16.4571 25.1428H15.5428C13.5849 25.1428 12.254 25.1411 11.2252 25.057C10.2231 24.9751 9.71065 24.8267 9.35317 24.6446C8.493 24.2063 7.79366 23.507 7.35538 22.6468C7.17323 22.2893 7.02483 21.7768 6.94296 20.7748C6.8589 19.746 6.85713 18.415 6.85713 16.4571V15.5428C6.85713 13.5849 6.8589 12.254 6.94296 11.2252C7.02483 10.2231 7.17323 9.71065 7.35538 9.35317C7.79366 8.493 8.493 7.79366 9.35317 7.35538C9.71065 7.17323 10.2231 7.02483 11.2252 6.94296C12.254 6.8589 13.5849 6.85713 15.5428 6.85713Z" fill="white"/>
</svg>
