<svg width="32" height="32" viewBox="0 0 32 32" fill="none" xmlns="http://www.w3.org/2000/svg">
<path d="M0 8C0 3.58172 3.58172 0 8 0H24C28.4183 0 32 3.58172 32 8V24C32 28.4183 28.4183 32 24 32H8C3.58172 32 0 28.4183 0 24V8Z" fill="#333333"/>
<path d="M11.9054 25.0714C9.36365 25.0714 6.99428 24.3321 5 23.0566C6.69321 23.1661 9.68134 22.9037 11.54 21.1309C8.74399 21.0026 7.48306 18.8582 7.31859 17.9418C7.55616 18.0335 8.68917 18.1434 9.32877 17.8868C6.11249 17.0804 5.61909 14.2579 5.72873 13.3965C6.33178 13.818 7.35514 13.9646 7.75718 13.928C4.76019 11.7836 5.83838 8.55788 6.36833 7.86142C8.51908 10.8411 11.7424 12.5146 15.73 12.6077C15.6548 12.2779 15.6151 11.9346 15.6151 11.582C15.6151 9.05143 17.6605 7 20.1837 7C21.502 7 22.6899 7.56002 23.5238 8.4558C24.4047 8.24937 25.7305 7.76612 26.3787 7.34823C26.052 8.52123 25.0349 9.49974 24.4196 9.86242C24.4247 9.87476 24.4146 9.85003 24.4196 9.86242C24.9601 9.78067 26.4223 9.49965 27 9.10772C26.7143 9.7667 25.636 10.8624 24.7511 11.4758C24.9157 18.737 19.3601 25.0714 11.9054 25.0714Z" fill="white"/>
</svg>
