<svg width="32" height="32" viewBox="0 0 32 32" fill="none" xmlns="http://www.w3.org/2000/svg">
<path d="M0 8C0 3.58172 3.58172 0 8 0H24C28.4183 0 32 3.58172 32 8V24C32 28.4183 28.4183 32 24 32H8C3.58172 32 0 28.4183 0 24V8Z" fill="#333333"/>
<path d="M4.21394 10.5716C4.32641 8.77836 5.71845 7.37298 7.45141 7.28406C9.96084 7.1553 13.5475 7 16.25 7C18.9525 7 22.5392 7.1553 25.0486 7.28406C26.7815 7.37298 28.1736 8.77836 28.2861 10.5716C28.3938 12.2897 28.5 14.4038 28.5 16.0625C28.5 17.7212 28.3938 19.8353 28.2861 21.5534C28.1736 23.3466 26.7815 24.752 25.0486 24.8409C22.5392 24.9697 18.9525 25.125 16.25 25.125C13.5475 25.125 9.96084 24.9697 7.45141 24.8409C5.71845 24.752 4.32641 23.3466 4.21394 21.5534C4.10619 19.8353 4 17.7212 4 16.0625C4 14.4038 4.10619 12.2897 4.21394 10.5716Z" fill="white"/>
<path d="M14 12V19.25L21 15.625L14 12Z" fill="#333333"/>
</svg>
